<?xml version="1.0" encoding="UTF-8" standalone="no"?>
<!DOCTYPE svg PUBLIC "-//W3C//DTD SVG 1.1//EN" "http://www.w3.org/Graphics/SVG/1.1/DTD/svg11.dtd">
<svg width="100%" height="100%" viewBox="0 0 143 32" version="1.1" xmlns="http://www.w3.org/2000/svg" xmlns:xlink="http://www.w3.org/1999/xlink" xml:space="preserve" xmlns:serif="http://www.serif.com/" style="fill-rule:evenodd;clip-rule:evenodd;stroke-linejoin:round;stroke-miterlimit:1.41421;">
    <g transform="matrix(1,0,0,1,100.6,2.274)">
        <path d="M0,3.575C-3.371,4.469 -8.448,5.849 -8.448,5.849L-9.707,1.179L3.208,-2.274C3.208,-2.274 3.371,2.681 0,3.575" style="fill:rgb(203,41,43);fill-rule:nonzero;"/>
    </g>
    <g transform="matrix(1,0,0,1,52.6354,18.6827)">
        <path d="M0,4.346L-2.478,-2.193L-4.874,4.346L0,4.346ZM-6.336,8.123L-7.92,12.347L-11.981,12.347L-5.118,-4.711L-11.453,-4.711L-10.275,-8.001L-1.666,-8.001L7.107,12.347L2.802,12.347L1.178,8.123L-6.336,8.123Z" style="fill:rgb(37,65,147);fill-rule:nonzero;"/>
    </g>
    <g transform="matrix(1,0,0,1,68.3121,31.0705)">
        <path d="M0,-20.348L0,-16.774L-3.858,-16.774L-3.858,0L-7.879,0L-7.879,-16.774L-11.737,-16.774L-11.737,-20.348L0,-20.348Z" style="fill:rgb(37,65,147);fill-rule:nonzero;"/>
    </g>
    <g transform="matrix(1,0,0,1,76.2726,18.8859)">
        <path d="M0,3.777L0,12.062L-3.98,12.062L-4.021,3.736L-6.742,3.736L-6.742,-0.122L-4.021,-0.122L-3.98,-8.285L0,-8.285L0,-0.081L6.539,-0.081L6.539,-8.285L10.56,-8.285L10.56,12.062L6.539,12.062L6.539,3.777L0,3.777Z" style="fill:rgb(37,65,147);fill-rule:nonzero;"/>
    </g>
    <g transform="matrix(1,0,0,1,103.687,10.7222)">
        <path d="M0,20.348L-12.793,20.348L-12.834,11.779L-15.596,11.779L-15.596,8.245L-12.834,8.245L-12.793,0L0,0L0,3.575L-8.854,3.575L-8.854,8.204L-1.828,8.204L-1.828,11.738L-8.854,11.738L-8.854,16.733L0,16.733L0,20.348Z" style="fill:rgb(37,65,147);fill-rule:nonzero;"/>
    </g>
    <g transform="matrix(1,0,0,1,109.129,10.7222)">
        <path d="M0,20.348L-3.899,20.348L-3.899,0L8.326,11.779L8.326,0L12.144,0L12.144,20.348L0,8.814L0,20.348Z" style="fill:rgb(37,65,147);fill-rule:nonzero;"/>
    </g>
    <g transform="matrix(1,0,0,1,135.406,18.6827)">
        <path d="M0,4.346L-2.478,-2.193L-4.874,4.346L0,4.346ZM-6.295,8.123L-7.879,12.347L-11.94,12.347L-5.077,-4.711L-10.235,-4.711L-10.194,-8.001L-1.584,-8.001L7.188,12.347L2.924,12.347L1.3,8.123L-6.295,8.123Z" style="fill:rgb(37,65,147);fill-rule:nonzero;"/>
    </g>
    <g transform="matrix(1,0,0,1,34.359,22.8662)">
        <path d="M0,-12.631L-9.463,-12.631L-11.291,-16.246L1.503,-16.246L0,-12.631ZM-4.386,-2.478L-7.27,-8.245L-1.868,-8.245L-4.386,-2.478ZM-10.032,3.615L-20.022,-16.205L-16.124,-16.205L-6.133,3.655L-10.032,3.655L-10.032,3.615ZM-26.155,0.04L-16.692,0.04L-14.865,3.655L-27.658,3.655L-26.155,0.04ZM-21.769,-10.113L-18.885,-4.346L-24.287,-4.346L-21.769,-10.113ZM-22.053,-20.591L-34.359,7.96L-4.102,7.96L8.204,-20.591L-22.053,-20.591Z" style="fill:rgb(37,65,147);fill-rule:nonzero;"/>
    </g>
    <g transform="matrix(1,0,0,1,34.359,22.9482)">
        <path d="M0,-12.713L-9.463,-12.713L-11.291,-16.328L1.503,-16.328L0,-12.713ZM-4.386,-2.56L-7.27,-8.327L-1.868,-8.327L-4.386,-2.56ZM-20.022,-16.287L-16.124,-16.287L-6.133,3.573L-4.062,7.919L8.245,-20.632L-22.053,-20.632" style="fill:rgb(37,65,147);fill-rule:nonzero;"/>
    </g>
    <g transform="matrix(1,0,0,1,61.5704,3.0463)">
        <path d="M0,4.955C-0.366,5.077 -1.016,5.28 -1.747,5.28C-2.681,5.28 -3.371,5.037 -3.899,4.549C-4.386,4.102 -4.671,3.371 -4.671,2.518C-4.671,0.772 -3.452,-0.325 -1.625,-0.325C-0.934,-0.325 -0.406,-0.203 -0.163,-0.081L-0.366,0.731C-0.65,0.609 -1.016,0.488 -1.625,0.488C-2.803,0.488 -3.615,1.178 -3.615,2.437C-3.615,3.696 -2.843,4.427 -1.706,4.427C-1.34,4.427 -1.097,4.387 -0.934,4.305L-0.934,2.965L-1.909,2.965L-1.909,2.193L0.041,2.193L0.041,4.955L0,4.955Z" style="fill:rgb(37,65,147);fill-rule:nonzero;"/>
    </g>
    <g transform="matrix(1,0,0,1,63.6012,5.7271)">
        <path d="M0,-0.447L0.609,-0.447C1.299,-0.447 1.706,-0.812 1.706,-1.34C1.706,-1.949 1.299,-2.234 0.649,-2.234C0.325,-2.234 0.122,-2.193 0.041,-2.193L0.041,-0.447L0,-0.447ZM-1.016,-2.884C-0.65,-2.965 -0.082,-3.006 0.487,-3.006C1.259,-3.006 1.828,-2.884 2.193,-2.559C2.477,-2.315 2.68,-1.909 2.68,-1.462C2.68,-0.772 2.193,-0.284 1.706,-0.081L1.706,-0.041C2.112,0.122 2.315,0.488 2.477,1.015C2.64,1.706 2.802,2.315 2.924,2.559L1.909,2.559C1.828,2.396 1.706,1.949 1.543,1.259C1.381,0.528 1.137,0.325 0.568,0.284L0,0.284L0,2.518L-0.975,2.518L-0.975,-2.884L-1.016,-2.884Z" style="fill:rgb(37,65,147);fill-rule:nonzero;"/>
    </g>
    <g transform="matrix(1,0,0,1,67.9874,5.4028)">
        <path d="M0,0.162C0,1.258 0.568,2.152 1.502,2.152C2.478,2.152 3.005,1.258 3.005,0.121C3.005,-0.894 2.478,-1.909 1.502,-1.909C0.528,-1.909 0,-0.975 0,0.162M4.102,0.04C4.102,1.868 3.005,2.924 1.462,2.924C-0.082,2.924 -1.056,1.746 -1.056,0.121C-1.056,-1.544 0,-2.762 1.543,-2.762C3.168,-2.722 4.102,-1.504 4.102,0.04" style="fill:rgb(37,65,147);fill-rule:nonzero;"/>
    </g>
    <g transform="matrix(1,0,0,1,73.9171,8.3261)">
        <path d="M0,-5.564L0,-2.356C0,-1.299 0.447,-0.772 1.137,-0.772C1.868,-0.772 2.274,-1.259 2.274,-2.356L2.274,-5.564L3.29,-5.564L3.29,-2.437C3.29,-0.731 2.437,0 1.096,0C-0.163,0 -0.975,-0.69 -0.975,-2.437L-0.975,-5.564L0,-5.564Z" style="fill:rgb(37,65,147);fill-rule:nonzero;"/>
    </g>
    <g transform="matrix(1,0,0,1,79.3185,5.5642)">
        <path d="M0,-0.162C0.122,-0.121 0.284,-0.121 0.487,-0.121C1.218,-0.121 1.706,-0.487 1.706,-1.137C1.706,-1.746 1.3,-2.071 0.609,-2.071C0.325,-2.071 0.122,-2.03 0.041,-2.03L0.041,-0.162L0,-0.162ZM-0.975,-2.721C-0.609,-2.802 -0.122,-2.843 0.569,-2.843C1.3,-2.843 1.828,-2.68 2.193,-2.396C2.518,-2.112 2.721,-1.705 2.721,-1.177C2.721,-0.649 2.559,-0.243 2.234,0.082C1.828,0.488 1.218,0.65 0.487,0.65C0.284,0.65 0.122,0.65 0,0.609L0,2.681L-0.975,2.681L-0.975,-2.721Z" style="fill:rgb(37,65,147);fill-rule:nonzero;"/>
    </g>
    <g transform="matrix(1,0,0,1,85.9386,5.199)">
        <path d="M0,0.65L-2.031,0.65L-2.031,2.275L0.284,2.275L0.284,3.087L-3.005,3.087L-3.005,-2.437L0.163,-2.437L0.163,-1.624L-2.031,-1.624L-2.031,-0.203L0.041,-0.203L0.041,0.65L0,0.65Z" style="fill:rgb(37,65,147);fill-rule:nonzero;"/>
    </g>
</svg>
