<?xml version="1.0" encoding="UTF-8" standalone="no"?><!DOCTYPE svg PUBLIC "-//W3C//DTD SVG 1.1//EN" "http://www.w3.org/Graphics/SVG/1.1/DTD/svg11.dtd"><svg width="100%" height="100%" viewBox="0 0 182 40" version="1.1" xmlns="http://www.w3.org/2000/svg" xmlns:xlink="http://www.w3.org/1999/xlink" xml:space="preserve" xmlns:serif="http://www.serif.com/" style="fill-rule:evenodd;clip-rule:evenodd;stroke-linejoin:round;stroke-miterlimit:1.41421;"><g><path d="M128.356,7.456c-4.297,1.14 -10.77,2.899 -10.77,2.899l-1.605,-5.954l16.466,-4.401c0,0 0.207,6.317 -4.091,7.456" style="fill:#cb292b;fill-rule:nonzero;"/><path d="M67.208,29.357l-3.159,-8.336l-3.054,8.336l6.213,0Zm-8.077,4.815l-2.02,5.385l-5.177,0l8.75,-21.746l-8.077,0l1.501,-4.194l10.977,0l11.184,25.94l-5.489,0l-2.071,-5.385l-9.578,0Z" style="fill:#fefefe;fill-rule:nonzero;"/><path d="M87.194,13.669l0,4.557l-4.919,0l0,21.383l-5.126,0l0,-21.383l-4.919,0l0,-4.557l14.964,0Z" style="fill:#fefefe;fill-rule:nonzero;"/><path d="M97.342,28.891l0,10.563l-5.074,0l-0.052,-10.615l-3.469,0l0,-4.919l3.469,0l0.052,-10.407l5.074,0l0,10.459l8.336,0l0,-10.459l5.126,0l0,25.941l-5.126,0l0,-10.563l-8.336,0Z" style="fill:#fefefe;fill-rule:nonzero;"/><path d="M132.291,39.609l-16.31,0l-0.051,-10.925l-3.521,0l0,-4.505l3.521,0l0.051,-10.51l16.31,0l0,4.556l-11.287,0l0,5.903l8.957,0l0,4.504l-8.957,0l0,6.369l11.287,0l0,4.608Z" style="fill:#fefefe;fill-rule:nonzero;"/><path d="M139.23,39.609l-4.971,0l0,-25.94l15.585,15.015l0,-15.015l4.867,0l0,25.94l-15.481,-14.704l0,14.704Z" style="fill:#fefefe;fill-rule:nonzero;"/><path d="M172.729,29.357l-3.159,-8.336l-3.054,8.336l6.213,0Zm-8.025,4.815l-2.02,5.385l-5.178,0l8.751,-21.746l-6.576,0l0.052,-4.194l10.976,0l11.185,25.94l-5.437,0l-2.071,-5.385l-9.682,0Z" style="fill:#fefefe;fill-rule:nonzero;"/><path d="M43.909,13.048l-12.064,0l-2.33,-4.608l16.31,0l-1.916,4.608Zm-5.592,12.944l-3.676,-7.352l6.886,0l-3.21,7.352Zm-7.197,7.767l-12.737,-25.268l4.971,0l12.737,25.32l-4.971,0l0,-0.052Zm-20.555,-4.557l12.064,0l2.33,4.609l-16.31,0l1.916,-4.609Zm5.592,-12.944l3.676,7.353l-6.886,0l3.21,-7.353Zm-0.363,-13.358l-15.688,36.399l38.574,0l15.688,-36.399l-38.574,0Z" style="fill:#878a8c;fill-rule:nonzero;"/><path d="M43.909,13.048l-12.064,0l-2.33,-4.608l16.31,0l-1.916,4.608Zm-5.592,12.944l-3.676,-7.352l6.886,0l-3.21,7.352Zm-19.934,-17.501l4.971,0l12.737,25.32l2.64,5.54l15.689,-36.4l-38.626,0" style="fill:#b9bbbd;fill-rule:nonzero;"/><path d="M78.599,10.2c-0.466,0.155 -1.294,0.414 -2.226,0.414c-1.191,0 -2.071,-0.31 -2.745,-0.932c-0.621,-0.569 -0.983,-1.502 -0.983,-2.588c0,-2.227 1.553,-3.624 3.883,-3.624c0.88,0 1.553,0.155 1.864,0.31l-0.259,1.035c-0.362,-0.155 -0.828,-0.31 -1.605,-0.31c-1.501,0 -2.537,0.88 -2.537,2.485c0,1.606 0.983,2.537 2.434,2.537c0.466,0 0.776,-0.052 0.983,-0.155l0,-1.709l-1.243,0l0,-0.984l2.486,0l0,3.521l-0.052,0Z" style="fill:#fefefe;fill-rule:nonzero;"/><path d="M81.188,6.731l0.777,0c0.88,0 1.398,-0.466 1.398,-1.14c0,-0.776 -0.518,-1.138 -1.346,-1.138c-0.415,0 -0.674,0.051 -0.777,0.051l0,2.227l-0.052,0Zm-1.294,-3.106c0.466,-0.104 1.19,-0.156 1.916,-0.156c0.983,0 1.708,0.156 2.174,0.57c0.363,0.31 0.621,0.828 0.621,1.397c0,0.881 -0.621,1.502 -1.242,1.761l0,0.052c0.517,0.207 0.776,0.672 0.984,1.346c0.207,0.88 0.414,1.657 0.569,1.967l-1.294,0c-0.104,-0.207 -0.259,-0.776 -0.466,-1.656c-0.208,-0.933 -0.518,-1.192 -1.243,-1.243l-0.725,0l0,2.847l-1.243,0l0,-6.885l-0.051,0Z" style="fill:#fefefe;fill-rule:nonzero;"/><path d="M86.78,7.094c0,1.397 0.725,2.537 1.916,2.537c1.243,0 1.916,-1.14 1.916,-2.589c0,-1.295 -0.673,-2.589 -1.916,-2.589c-1.243,0 -1.916,1.191 -1.916,2.641m5.229,-0.155c0,2.33 -1.397,3.676 -3.365,3.676c-1.968,0 -3.21,-1.501 -3.21,-3.573c0,-2.123 1.346,-3.676 3.314,-3.676c2.071,0.052 3.261,1.605 3.261,3.573" style="fill:#fefefe;fill-rule:nonzero;"/><path d="M94.339,3.521l0,4.09c0,1.347 0.569,2.019 1.45,2.019c0.932,0 1.449,-0.621 1.449,-2.019l0,-4.09l1.295,0l0,3.986c0,2.175 -1.088,3.107 -2.796,3.107c-1.605,0 -2.641,-0.88 -2.641,-3.107l0,-3.986l1.243,0Z" style="fill:#fefefe;fill-rule:nonzero;"/><path d="M101.226,6.887c0.155,0.052 0.362,0.052 0.622,0.052c0.931,0 1.553,-0.466 1.553,-1.295c0,-0.777 -0.518,-1.191 -1.398,-1.191c-0.363,0 -0.622,0.052 -0.725,0.052l0,2.382l-0.052,0Zm-1.243,-3.262c0.467,-0.103 1.088,-0.155 1.968,-0.155c0.931,0 1.605,0.207 2.071,0.569c0.413,0.363 0.672,0.88 0.672,1.553c0.001,0.674 -0.206,1.191 -0.62,1.606c-0.518,0.517 -1.295,0.724 -2.226,0.724c-0.26,0 -0.467,0 -0.622,-0.052l0,2.641l-1.243,0l0,-6.886Z" style="fill:#fefefe;fill-rule:nonzero;"/><path d="M109.665,7.456l-2.588,0l0,2.071l2.951,0l0,1.035l-4.194,0l0,-7.041l4.039,0l0,1.036l-2.796,0l0,1.812l2.64,0l0,1.087l-0.052,0Z" style="fill:#fefefe;fill-rule:nonzero;"/></g></svg>